<mxfile host="app.diagrams.net" modified="2022-12-26T10:33:48.703Z" agent="5.0 (Macintosh; Intel Mac OS X 10_15_7) AppleWebKit/537.36 (KHTML, like Gecko) Chrome/107.0.0.0 Safari/537.36" version="20.6.2" etag="fEuTbj0eh8DJFO2Layjx" type="github">
  <diagram id="3af7CMzs3UxlAyq6SYyx" name="Trang-1">
    <mxGraphModel dx="2994" dy="2611" grid="1" gridSize="10" guides="1" tooltips="1" connect="1" arrows="1" fold="1" page="1" pageScale="1" pageWidth="827" pageHeight="1169" math="0" shadow="0">
      <root>
        <mxCell id="0" />
        <mxCell id="1" parent="0" />
        <mxCell id="BvPfv8m92Pc0-gYzKsoL-1" value="&lt;b&gt;pod&lt;/b&gt;" style="shape=cube;whiteSpace=wrap;html=1;boundedLbl=1;backgroundOutline=1;darkOpacity=0.05;darkOpacity2=0.1;strokeWidth=2;" vertex="1" parent="1">
          <mxGeometry x="35" y="370" width="120" height="80" as="geometry" />
        </mxCell>
        <mxCell id="BvPfv8m92Pc0-gYzKsoL-2" value="&lt;b&gt;pod&lt;/b&gt;" style="shape=cube;whiteSpace=wrap;html=1;boundedLbl=1;backgroundOutline=1;darkOpacity=0.05;darkOpacity2=0.1;strokeWidth=2;" vertex="1" parent="1">
          <mxGeometry x="35" y="570" width="120" height="80" as="geometry" />
        </mxCell>
        <mxCell id="BvPfv8m92Pc0-gYzKsoL-3" value="&lt;b&gt;pod&lt;/b&gt;" style="shape=cube;whiteSpace=wrap;html=1;boundedLbl=1;backgroundOutline=1;darkOpacity=0.05;darkOpacity2=0.1;strokeWidth=2;" vertex="1" parent="1">
          <mxGeometry x="35" y="470" width="120" height="80" as="geometry" />
        </mxCell>
        <mxCell id="BvPfv8m92Pc0-gYzKsoL-4" value="&lt;b&gt;pod&lt;/b&gt;" style="shape=cube;whiteSpace=wrap;html=1;boundedLbl=1;backgroundOutline=1;darkOpacity=0.05;darkOpacity2=0.1;strokeWidth=2;" vertex="1" parent="1">
          <mxGeometry x="400" y="370" width="120" height="80" as="geometry" />
        </mxCell>
        <mxCell id="BvPfv8m92Pc0-gYzKsoL-5" value="&lt;b&gt;pod&lt;/b&gt;" style="shape=cube;whiteSpace=wrap;html=1;boundedLbl=1;backgroundOutline=1;darkOpacity=0.05;darkOpacity2=0.1;strokeWidth=2;" vertex="1" parent="1">
          <mxGeometry x="400" y="570" width="120" height="80" as="geometry" />
        </mxCell>
        <mxCell id="BvPfv8m92Pc0-gYzKsoL-6" value="&lt;b&gt;pod&lt;/b&gt;" style="shape=cube;whiteSpace=wrap;html=1;boundedLbl=1;backgroundOutline=1;darkOpacity=0.05;darkOpacity2=0.1;strokeWidth=2;" vertex="1" parent="1">
          <mxGeometry x="400" y="470" width="120" height="80" as="geometry" />
        </mxCell>
        <mxCell id="BvPfv8m92Pc0-gYzKsoL-7" value="" style="rounded=0;whiteSpace=wrap;html=1;strokeWidth=3;fillColor=none;" vertex="1" parent="1">
          <mxGeometry x="5" y="350" width="190" height="340" as="geometry" />
        </mxCell>
        <mxCell id="BvPfv8m92Pc0-gYzKsoL-8" value="" style="rounded=0;whiteSpace=wrap;html=1;strokeWidth=3;fillColor=none;" vertex="1" parent="1">
          <mxGeometry x="365" y="345" width="195" height="345" as="geometry" />
        </mxCell>
        <mxCell id="BvPfv8m92Pc0-gYzKsoL-9" value="&lt;b style=&quot;font-size: 13px ; line-height: 0%&quot;&gt;Relicaset&lt;/b&gt;" style="rounded=0;whiteSpace=wrap;html=1;dashed=1;strokeWidth=2;fillColor=none;opacity=0;" vertex="1" parent="1">
          <mxGeometry x="35" y="640" width="120" height="60" as="geometry" />
        </mxCell>
        <mxCell id="BvPfv8m92Pc0-gYzKsoL-10" value="&lt;b style=&quot;font-size: 13px ; line-height: 0%&quot;&gt;Relicaset&lt;/b&gt;" style="rounded=0;whiteSpace=wrap;html=1;dashed=1;strokeWidth=2;fillColor=none;opacity=0;" vertex="1" parent="1">
          <mxGeometry x="402.5" y="640" width="120" height="60" as="geometry" />
        </mxCell>
        <mxCell id="BvPfv8m92Pc0-gYzKsoL-11" value="" style="rounded=0;whiteSpace=wrap;html=1;strokeWidth=3;strokeColor=#82b366;fillColor=none;" vertex="1" parent="1">
          <mxGeometry x="-10" y="255" width="590" height="445" as="geometry" />
        </mxCell>
        <mxCell id="BvPfv8m92Pc0-gYzKsoL-12" value="&lt;font style=&quot;font-size: 13px&quot; color=&quot;#330000&quot;&gt;&lt;b&gt;Deployment&lt;/b&gt;&lt;/font&gt;" style="rounded=0;whiteSpace=wrap;html=1;dashed=1;strokeWidth=2;fillColor=none;opacity=0;" vertex="1" parent="1">
          <mxGeometry x="210" y="210" width="120" height="60" as="geometry" />
        </mxCell>
        <mxCell id="BvPfv8m92Pc0-gYzKsoL-13" value="&lt;font style=&quot;font-size: 13px&quot;&gt;&lt;b&gt;Revision1&lt;/b&gt;&lt;/font&gt;" style="rounded=0;whiteSpace=wrap;html=1;dashed=1;strokeWidth=2;fillColor=none;opacity=0;" vertex="1" parent="1">
          <mxGeometry x="37.5" y="250" width="120" height="60" as="geometry" />
        </mxCell>
        <mxCell id="BvPfv8m92Pc0-gYzKsoL-14" value="&lt;font style=&quot;font-size: 13px&quot;&gt;&lt;b&gt;Revision2&lt;/b&gt;&lt;/font&gt;" style="rounded=0;whiteSpace=wrap;html=1;dashed=1;strokeWidth=2;fillColor=none;opacity=0;" vertex="1" parent="1">
          <mxGeometry x="400" y="250" width="120" height="60" as="geometry" />
        </mxCell>
        <mxCell id="BvPfv8m92Pc0-gYzKsoL-15" value="" style="endArrow=classic;startArrow=classic;html=1;" edge="1" parent="1">
          <mxGeometry width="50" height="50" relative="1" as="geometry">
            <mxPoint x="195" y="294.30999999999995" as="sourcePoint" />
            <mxPoint x="345" y="294.30999999999995" as="targetPoint" />
          </mxGeometry>
        </mxCell>
        <mxCell id="BvPfv8m92Pc0-gYzKsoL-16" value="&lt;font style=&quot;font-size: 13px&quot;&gt;&lt;b&gt;rollback&lt;/b&gt;&lt;/font&gt;" style="rounded=0;whiteSpace=wrap;html=1;dashed=1;strokeWidth=2;fillColor=none;opacity=0;" vertex="1" parent="1">
          <mxGeometry x="147.5" y="250" width="120" height="60" as="geometry" />
        </mxCell>
        <mxCell id="BvPfv8m92Pc0-gYzKsoL-17" value="&lt;font style=&quot;font-size: 13px&quot;&gt;&lt;b&gt;rollout&lt;/b&gt;&lt;/font&gt;" style="rounded=0;whiteSpace=wrap;html=1;dashed=1;strokeWidth=2;fillColor=none;opacity=0;" vertex="1" parent="1">
          <mxGeometry x="283.5" y="250" width="120" height="60" as="geometry" />
        </mxCell>
        <mxCell id="BvPfv8m92Pc0-gYzKsoL-18" value="" style="rounded=0;whiteSpace=wrap;html=1;strokeColor=#9673a6;strokeWidth=3;fillColor=#e1d5e7;" vertex="1" parent="1">
          <mxGeometry x="-10" y="120" width="590" height="40" as="geometry" />
        </mxCell>
        <mxCell id="BvPfv8m92Pc0-gYzKsoL-19" value="&lt;font style=&quot;font-size: 13px&quot; color=&quot;#330000&quot;&gt;&lt;b&gt;Service&lt;/b&gt;&lt;/font&gt;" style="rounded=0;whiteSpace=wrap;html=1;dashed=1;strokeWidth=2;fillColor=none;opacity=0;" vertex="1" parent="1">
          <mxGeometry x="220" y="80" width="120" height="60" as="geometry" />
        </mxCell>
        <mxCell id="BvPfv8m92Pc0-gYzKsoL-20" value="" style="endArrow=classic;html=1;strokeWidth=3;" edge="1" parent="1">
          <mxGeometry width="50" height="50" relative="1" as="geometry">
            <mxPoint x="269.50000000000045" y="160" as="sourcePoint" />
            <mxPoint x="269.50000000000045" y="210" as="targetPoint" />
          </mxGeometry>
        </mxCell>
        <mxCell id="BvPfv8m92Pc0-gYzKsoL-21" value="&lt;b&gt;selector&lt;/b&gt;" style="rounded=0;whiteSpace=wrap;html=1;dashed=1;strokeWidth=2;fillColor=none;opacity=0;" vertex="1" parent="1">
          <mxGeometry x="210" y="120" width="120" height="60" as="geometry" />
        </mxCell>
        <mxCell id="BvPfv8m92Pc0-gYzKsoL-22" value="" style="rounded=0;whiteSpace=wrap;html=1;strokeColor=#d6b656;strokeWidth=3;fillColor=#fff2cc;" vertex="1" parent="1">
          <mxGeometry x="-15" width="590" height="40" as="geometry" />
        </mxCell>
        <mxCell id="BvPfv8m92Pc0-gYzKsoL-23" value="&lt;font style=&quot;font-size: 13px&quot; color=&quot;#330000&quot;&gt;&lt;b&gt;Igress&lt;/b&gt;&lt;/font&gt;" style="rounded=0;whiteSpace=wrap;html=1;dashed=1;strokeWidth=2;fillColor=none;opacity=0;" vertex="1" parent="1">
          <mxGeometry x="210" y="-40" width="120" height="60" as="geometry" />
        </mxCell>
        <mxCell id="BvPfv8m92Pc0-gYzKsoL-24" value="" style="endArrow=classic;html=1;strokeWidth=3;" edge="1" parent="1">
          <mxGeometry width="50" height="50" relative="1" as="geometry">
            <mxPoint x="264.50000000000045" y="40" as="sourcePoint" />
            <mxPoint x="264.50000000000045" y="90" as="targetPoint" />
          </mxGeometry>
        </mxCell>
        <mxCell id="BvPfv8m92Pc0-gYzKsoL-25" value="&lt;b&gt;selector&lt;/b&gt;" style="rounded=0;whiteSpace=wrap;html=1;dashed=1;strokeWidth=2;fillColor=none;opacity=0;" vertex="1" parent="1">
          <mxGeometry x="205" width="120" height="60" as="geometry" />
        </mxCell>
        <mxCell id="BvPfv8m92Pc0-gYzKsoL-26" value="" style="rounded=0;whiteSpace=wrap;html=1;strokeColor=#d6b656;strokeWidth=3;fillColor=#fff2cc;" vertex="1" parent="1">
          <mxGeometry x="-15" y="-120" width="590" height="40" as="geometry" />
        </mxCell>
        <mxCell id="BvPfv8m92Pc0-gYzKsoL-27" value="&lt;font style=&quot;font-size: 13px&quot; color=&quot;#330000&quot;&gt;&lt;b&gt;Loadbalancing&lt;/b&gt;&lt;/font&gt;" style="rounded=0;whiteSpace=wrap;html=1;dashed=1;strokeWidth=2;fillColor=none;opacity=0;" vertex="1" parent="1">
          <mxGeometry x="210" y="-160" width="120" height="60" as="geometry" />
        </mxCell>
        <mxCell id="BvPfv8m92Pc0-gYzKsoL-28" value="" style="endArrow=classic;html=1;strokeWidth=3;" edge="1" parent="1">
          <mxGeometry width="50" height="50" relative="1" as="geometry">
            <mxPoint x="264.50000000000045" y="-80" as="sourcePoint" />
            <mxPoint x="264.50000000000045" y="-30" as="targetPoint" />
          </mxGeometry>
        </mxCell>
        <mxCell id="BvPfv8m92Pc0-gYzKsoL-29" value="&lt;b&gt;pod&lt;/b&gt;" style="shape=cube;whiteSpace=wrap;html=1;boundedLbl=1;backgroundOutline=1;darkOpacity=0.05;darkOpacity2=0.1;strokeWidth=2;" vertex="1" parent="1">
          <mxGeometry x="700" y="368" width="120" height="80" as="geometry" />
        </mxCell>
        <mxCell id="BvPfv8m92Pc0-gYzKsoL-30" value="&lt;b&gt;pod&lt;/b&gt;" style="shape=cube;whiteSpace=wrap;html=1;boundedLbl=1;backgroundOutline=1;darkOpacity=0.05;darkOpacity2=0.1;strokeWidth=2;" vertex="1" parent="1">
          <mxGeometry x="700" y="568" width="120" height="80" as="geometry" />
        </mxCell>
        <mxCell id="BvPfv8m92Pc0-gYzKsoL-31" value="&lt;b&gt;pod&lt;/b&gt;" style="shape=cube;whiteSpace=wrap;html=1;boundedLbl=1;backgroundOutline=1;darkOpacity=0.05;darkOpacity2=0.1;strokeWidth=2;" vertex="1" parent="1">
          <mxGeometry x="700" y="468" width="120" height="80" as="geometry" />
        </mxCell>
        <mxCell id="BvPfv8m92Pc0-gYzKsoL-32" value="&lt;b&gt;pod&lt;/b&gt;" style="shape=cube;whiteSpace=wrap;html=1;boundedLbl=1;backgroundOutline=1;darkOpacity=0.05;darkOpacity2=0.1;strokeWidth=2;" vertex="1" parent="1">
          <mxGeometry x="1065" y="368" width="120" height="80" as="geometry" />
        </mxCell>
        <mxCell id="BvPfv8m92Pc0-gYzKsoL-33" value="&lt;b&gt;pod&lt;/b&gt;" style="shape=cube;whiteSpace=wrap;html=1;boundedLbl=1;backgroundOutline=1;darkOpacity=0.05;darkOpacity2=0.1;strokeWidth=2;" vertex="1" parent="1">
          <mxGeometry x="1065" y="568" width="120" height="80" as="geometry" />
        </mxCell>
        <mxCell id="BvPfv8m92Pc0-gYzKsoL-34" value="&lt;b&gt;pod&lt;/b&gt;" style="shape=cube;whiteSpace=wrap;html=1;boundedLbl=1;backgroundOutline=1;darkOpacity=0.05;darkOpacity2=0.1;strokeWidth=2;" vertex="1" parent="1">
          <mxGeometry x="1065" y="468" width="120" height="80" as="geometry" />
        </mxCell>
        <mxCell id="BvPfv8m92Pc0-gYzKsoL-35" value="" style="rounded=0;whiteSpace=wrap;html=1;strokeWidth=3;fillColor=none;" vertex="1" parent="1">
          <mxGeometry x="670" y="348" width="190" height="340" as="geometry" />
        </mxCell>
        <mxCell id="BvPfv8m92Pc0-gYzKsoL-36" value="" style="rounded=0;whiteSpace=wrap;html=1;strokeWidth=3;fillColor=none;" vertex="1" parent="1">
          <mxGeometry x="1030" y="343" width="195" height="345" as="geometry" />
        </mxCell>
        <mxCell id="BvPfv8m92Pc0-gYzKsoL-37" value="&lt;b style=&quot;font-size: 13px ; line-height: 0%&quot;&gt;Relicaset&lt;/b&gt;" style="rounded=0;whiteSpace=wrap;html=1;dashed=1;strokeWidth=2;fillColor=none;opacity=0;" vertex="1" parent="1">
          <mxGeometry x="700" y="638" width="120" height="60" as="geometry" />
        </mxCell>
        <mxCell id="BvPfv8m92Pc0-gYzKsoL-38" value="&lt;b style=&quot;font-size: 13px ; line-height: 0%&quot;&gt;Relicaset&lt;/b&gt;" style="rounded=0;whiteSpace=wrap;html=1;dashed=1;strokeWidth=2;fillColor=none;opacity=0;" vertex="1" parent="1">
          <mxGeometry x="1067.5" y="638" width="120" height="60" as="geometry" />
        </mxCell>
        <mxCell id="BvPfv8m92Pc0-gYzKsoL-39" value="" style="rounded=0;whiteSpace=wrap;html=1;strokeWidth=3;strokeColor=#82b366;fillColor=none;" vertex="1" parent="1">
          <mxGeometry x="655" y="253" width="590" height="445" as="geometry" />
        </mxCell>
        <mxCell id="BvPfv8m92Pc0-gYzKsoL-40" value="&lt;font style=&quot;font-size: 13px&quot; color=&quot;#330000&quot;&gt;&lt;b&gt;Deployment&lt;/b&gt;&lt;/font&gt;" style="rounded=0;whiteSpace=wrap;html=1;dashed=1;strokeWidth=2;fillColor=none;opacity=0;" vertex="1" parent="1">
          <mxGeometry x="875" y="208" width="120" height="60" as="geometry" />
        </mxCell>
        <mxCell id="BvPfv8m92Pc0-gYzKsoL-41" value="&lt;font style=&quot;font-size: 13px&quot;&gt;&lt;b&gt;Revision1&lt;/b&gt;&lt;/font&gt;" style="rounded=0;whiteSpace=wrap;html=1;dashed=1;strokeWidth=2;fillColor=none;opacity=0;" vertex="1" parent="1">
          <mxGeometry x="702.5" y="248" width="120" height="60" as="geometry" />
        </mxCell>
        <mxCell id="BvPfv8m92Pc0-gYzKsoL-42" value="&lt;font style=&quot;font-size: 13px&quot;&gt;&lt;b&gt;Revision2&lt;/b&gt;&lt;/font&gt;" style="rounded=0;whiteSpace=wrap;html=1;dashed=1;strokeWidth=2;fillColor=none;opacity=0;" vertex="1" parent="1">
          <mxGeometry x="1065" y="248" width="120" height="60" as="geometry" />
        </mxCell>
        <mxCell id="BvPfv8m92Pc0-gYzKsoL-43" value="" style="endArrow=classic;startArrow=classic;html=1;" edge="1" parent="1">
          <mxGeometry width="50" height="50" relative="1" as="geometry">
            <mxPoint x="860" y="292.3099999999995" as="sourcePoint" />
            <mxPoint x="1010" y="292.3099999999995" as="targetPoint" />
          </mxGeometry>
        </mxCell>
        <mxCell id="BvPfv8m92Pc0-gYzKsoL-44" value="&lt;font style=&quot;font-size: 13px&quot;&gt;&lt;b&gt;rollback&lt;/b&gt;&lt;/font&gt;" style="rounded=0;whiteSpace=wrap;html=1;dashed=1;strokeWidth=2;fillColor=none;opacity=0;" vertex="1" parent="1">
          <mxGeometry x="812.5" y="248" width="120" height="60" as="geometry" />
        </mxCell>
        <mxCell id="BvPfv8m92Pc0-gYzKsoL-45" value="&lt;font style=&quot;font-size: 13px&quot;&gt;&lt;b&gt;rollout&lt;/b&gt;&lt;/font&gt;" style="rounded=0;whiteSpace=wrap;html=1;dashed=1;strokeWidth=2;fillColor=none;opacity=0;" vertex="1" parent="1">
          <mxGeometry x="948.5" y="248" width="120" height="60" as="geometry" />
        </mxCell>
        <mxCell id="BvPfv8m92Pc0-gYzKsoL-46" value="" style="rounded=0;whiteSpace=wrap;html=1;strokeColor=#9673a6;strokeWidth=3;fillColor=#e1d5e7;" vertex="1" parent="1">
          <mxGeometry x="655" y="118" width="590" height="40" as="geometry" />
        </mxCell>
        <mxCell id="BvPfv8m92Pc0-gYzKsoL-47" value="&lt;font style=&quot;font-size: 13px&quot; color=&quot;#330000&quot;&gt;&lt;b&gt;Service&lt;/b&gt;&lt;/font&gt;" style="rounded=0;whiteSpace=wrap;html=1;dashed=1;strokeWidth=2;fillColor=none;opacity=0;" vertex="1" parent="1">
          <mxGeometry x="885" y="78" width="120" height="60" as="geometry" />
        </mxCell>
        <mxCell id="BvPfv8m92Pc0-gYzKsoL-48" value="" style="endArrow=classic;html=1;strokeWidth=3;" edge="1" parent="1">
          <mxGeometry width="50" height="50" relative="1" as="geometry">
            <mxPoint x="934.5" y="158" as="sourcePoint" />
            <mxPoint x="934.5" y="208" as="targetPoint" />
          </mxGeometry>
        </mxCell>
        <mxCell id="BvPfv8m92Pc0-gYzKsoL-49" value="&lt;b&gt;selector&lt;/b&gt;" style="rounded=0;whiteSpace=wrap;html=1;dashed=1;strokeWidth=2;fillColor=none;opacity=0;" vertex="1" parent="1">
          <mxGeometry x="875" y="118" width="120" height="60" as="geometry" />
        </mxCell>
        <mxCell id="BvPfv8m92Pc0-gYzKsoL-50" value="" style="rounded=0;whiteSpace=wrap;html=1;strokeColor=#d6b656;strokeWidth=3;fillColor=#fff2cc;" vertex="1" parent="1">
          <mxGeometry x="650" y="-2" width="590" height="40" as="geometry" />
        </mxCell>
        <mxCell id="BvPfv8m92Pc0-gYzKsoL-51" value="" style="endArrow=classic;html=1;strokeWidth=3;" edge="1" parent="1">
          <mxGeometry width="50" height="50" relative="1" as="geometry">
            <mxPoint x="929.5" y="38" as="sourcePoint" />
            <mxPoint x="929.5" y="88" as="targetPoint" />
          </mxGeometry>
        </mxCell>
        <mxCell id="BvPfv8m92Pc0-gYzKsoL-52" value="&lt;b&gt;selector&lt;/b&gt;" style="rounded=0;whiteSpace=wrap;html=1;dashed=1;strokeWidth=2;fillColor=none;opacity=0;" vertex="1" parent="1">
          <mxGeometry x="870" y="-2" width="120" height="60" as="geometry" />
        </mxCell>
        <mxCell id="BvPfv8m92Pc0-gYzKsoL-53" value="" style="endArrow=classic;html=1;strokeWidth=3;" edge="1" parent="1" target="BvPfv8m92Pc0-gYzKsoL-54">
          <mxGeometry width="50" height="50" relative="1" as="geometry">
            <mxPoint x="262.5" y="-80" as="sourcePoint" />
            <mxPoint x="840" y="-20" as="targetPoint" />
          </mxGeometry>
        </mxCell>
        <mxCell id="BvPfv8m92Pc0-gYzKsoL-54" value="&lt;font style=&quot;font-size: 13px&quot; color=&quot;#330000&quot;&gt;&lt;b&gt;Igress&lt;/b&gt;&lt;/font&gt;" style="rounded=0;whiteSpace=wrap;html=1;dashed=1;strokeWidth=2;fillColor=none;opacity=0;" vertex="1" parent="1">
          <mxGeometry x="870" y="-40" width="120" height="60" as="geometry" />
        </mxCell>
        <mxCell id="BvPfv8m92Pc0-gYzKsoL-55" value="" style="endArrow=classic;startArrow=classic;html=1;strokeWidth=3;" edge="1" parent="1">
          <mxGeometry width="50" height="50" relative="1" as="geometry">
            <mxPoint x="590" y="140" as="sourcePoint" />
            <mxPoint x="650" y="140" as="targetPoint" />
          </mxGeometry>
        </mxCell>
        <mxCell id="BvPfv8m92Pc0-gYzKsoL-56" value="default" style="rounded=0;whiteSpace=wrap;html=1;strokeColor=#31FF12;strokeWidth=3;fillColor=none;" vertex="1" parent="1">
          <mxGeometry x="-10" y="730" width="1260" height="60" as="geometry" />
        </mxCell>
        <mxCell id="BvPfv8m92Pc0-gYzKsoL-57" value="node 1" style="rounded=0;whiteSpace=wrap;html=1;strokeColor=#b85450;strokeWidth=3;fillColor=#f8cecc;" vertex="1" parent="1">
          <mxGeometry x="-15" y="820" width="185" height="260" as="geometry" />
        </mxCell>
        <mxCell id="BvPfv8m92Pc0-gYzKsoL-58" value="node 2" style="rounded=0;whiteSpace=wrap;html=1;strokeColor=#b85450;strokeWidth=3;fillColor=#f8cecc;" vertex="1" parent="1">
          <mxGeometry x="205" y="820" width="185" height="260" as="geometry" />
        </mxCell>
        <mxCell id="BvPfv8m92Pc0-gYzKsoL-63" value="&lt;div&gt;&lt;b&gt;&lt;font style=&quot;font-size: 14px;&quot;&gt;wrap one or more containers&lt;/font&gt;&lt;/b&gt;&lt;/div&gt;" style="shape=callout;whiteSpace=wrap;html=1;perimeter=calloutPerimeter;position2=1;base=39;size=60;position=0.67;strokeWidth=2;" vertex="1" parent="1">
          <mxGeometry x="-190" y="500" width="240" height="110" as="geometry" />
        </mxCell>
        <mxCell id="BvPfv8m92Pc0-gYzKsoL-64" value="&lt;b&gt;&lt;font style=&quot;font-size: 14px;&quot;&gt;stable set of replica Pods running at any given time&lt;/font&gt;&lt;/b&gt;" style="shape=callout;whiteSpace=wrap;html=1;perimeter=calloutPerimeter;position2=1;base=39;size=60;position=0.65;strokeWidth=2;" vertex="1" parent="1">
          <mxGeometry x="-210" y="238" width="240" height="110" as="geometry" />
        </mxCell>
        <mxCell id="BvPfv8m92Pc0-gYzKsoL-65" value="&lt;b&gt;&lt;font style=&quot;font-size: 14px;&quot;&gt;deploy application, perform update, scale, auto-scale, un-update rollback deployment&lt;/font&gt;&lt;/b&gt;" style="shape=callout;whiteSpace=wrap;html=1;perimeter=calloutPerimeter;position2=1;base=39;size=60;position=0.65;strokeWidth=2;" vertex="1" parent="1">
          <mxGeometry x="-110" y="110" width="240" height="140" as="geometry" />
        </mxCell>
      </root>
    </mxGraphModel>
  </diagram>
</mxfile>
